HIERARCHY
ROOT Hips
{
	OFFSET 0.000000 0.000000 0.000000
	CHANNELS 6 Xposition Yposition Zposition Zrotation Yrotation Xrotation 
	JOINT LHipJoint
	{
		OFFSET 0.000000 0.000000 0.000000
		CHANNELS 3 Zrotation Yrotation Xrotation
		JOINT LeftUpLeg
		{
			OFFSET 1.363060 -1.794630 0.839290
			CHANNELS 3 Zrotation Yrotation Xrotation
			JOINT LeftLeg
			{
				OFFSET 2.448110 -6.726130 0.000000
				CHANNELS 3 Zrotation Yrotation Xrotation
				JOINT LeftFoot
				{
					OFFSET 2.562200 -7.039590 0.000000
					CHANNELS 3 Zrotation Yrotation Xrotation
					JOINT LeftToeBase
					{
						OFFSET 0.157640 -0.433110 2.322550
						CHANNELS 3 Zrotation Yrotation Xrotation
						End Site
						{
							OFFSET 0.000000 0.000000 0.000000
						}
					}
				}
			}
		}
	}
	JOINT RHipJoint
	{
		OFFSET 0.000000 0.000000 0.000000
		CHANNELS 3 Zrotation Yrotation Xrotation
		JOINT RightUpLeg
		{
			OFFSET -1.305520 -1.794630 0.839290
			CHANNELS 3 Zrotation Yrotation Xrotation
			JOINT RightLeg
			{
				OFFSET -2.542530 -6.985550 0.000000
				CHANNELS 3 Zrotation Yrotation Xrotation
				JOINT RightFoot
				{
					OFFSET -2.568260 -7.056230 0.000000
					CHANNELS 3 Zrotation Yrotation Xrotation
					JOINT RightToeBase
					{
						OFFSET -0.164730 -0.452590 2.363150
						CHANNELS 3 Zrotation Yrotation Xrotation
						End Site
						{
							OFFSET 0.000000 0.000000 0.000000
						}
					}
				}
			}
		}
	}
	JOINT LowerBack
	{
		OFFSET 0.000000 0.000000 0.000000
		CHANNELS 3 Zrotation Yrotation Xrotation
		JOINT Spine
		{
			OFFSET 0.028270 2.035590 -0.193380
			CHANNELS 3 Zrotation Yrotation Xrotation
			JOINT Spine1
			{
				OFFSET 0.056720 2.048850 -0.042750
				CHANNELS 3 Zrotation Yrotation Xrotation
				JOINT Neck
				{
					OFFSET 0.000000 0.000000 0.000000
					CHANNELS 3 Zrotation Yrotation Xrotation
					JOINT Neck1
					{
						OFFSET -0.054170 1.746240 0.172020
						CHANNELS 3 Zrotation Yrotation Xrotation
						JOINT Head
						{
							OFFSET 0.104070 1.761360 -0.123970
							CHANNELS 3 Zrotation Yrotation Xrotation
							End Site
							{
								OFFSET 0.000000 0.000000 0.000000
							}
						}
					}
				}
				JOINT LeftShoulder
				{
					OFFSET 0.000000 0.000000 0.000000
					CHANNELS 3 Zrotation Yrotation Xrotation
					JOINT LeftArm
					{
						OFFSET 3.362410 1.200890 -0.311210
						CHANNELS 3 Zrotation Yrotation Xrotation
						JOINT LeftForeArm
						{
							OFFSET 4.983000 -0.000000 -0.000000
							CHANNELS 3 Zrotation Yrotation Xrotation
							JOINT LeftHand
							{
								OFFSET 3.483560 -0.000000 -0.000000
								CHANNELS 3 Zrotation Yrotation Xrotation
								JOINT LeftFingerBase
								{
									OFFSET 0.000000 0.000000 0.000000
									CHANNELS 3 Zrotation Yrotation Xrotation
									JOINT LeftHandIndex1
									{
										OFFSET 0.715260 -0.000000 -0.000000
										CHANNELS 3 Zrotation Yrotation Xrotation
										End Site
										{
											OFFSET 0.000000 0.000000 0.000000
										}
									}
								}
								JOINT LThumb
								{
									OFFSET 0.000000 0.000000 0.000000
									CHANNELS 3 Zrotation Yrotation Xrotation
									End Site
									{
										OFFSET 0.000000 0.000000 0.000000
									}
								}
							}
						}
					}
				}
				JOINT RightShoulder
				{
					OFFSET 0.000000 0.000000 0.000000
					CHANNELS 3 Zrotation Yrotation Xrotation
					JOINT RightArm
					{
						OFFSET -3.136600 1.374050 -0.404650
						CHANNELS 3 Zrotation Yrotation Xrotation
						JOINT RightForeArm
						{
							OFFSET -5.241900 -0.000000 -0.000000
							CHANNELS 3 Zrotation Yrotation Xrotation
							JOINT RightHand
							{
								OFFSET -3.444170 -0.000000 -0.000000
								CHANNELS 3 Zrotation Yrotation Xrotation
								JOINT RightFingerBase
								{
									OFFSET 0.000000 0.000000 0.000000
									CHANNELS 3 Zrotation Yrotation Xrotation
									JOINT RightHandIndex1
									{
										OFFSET -0.622530 -0.000000 -0.000000
										CHANNELS 3 Zrotation Yrotation Xrotation
										End Site
										{
											OFFSET 0.000000 0.000000 0.000000
										}
									}
								}
								JOINT RThumb
								{
									OFFSET 0.000000 0.000000 0.000000
									CHANNELS 3 Zrotation Yrotation Xrotation
									End Site
									{
										OFFSET 0.000000 0.000000 0.000000
									}
								}
							}
						}
					}
				}
			}
		}
	}
}
MOTION
Frames: 7
Frame Time: 0.008333
-0.009643 17.451584 -21.027440 3.159477 9.344985 21.163998 -5.560465 -1.572785 2.492808 -11.179842 0.834391 -4.015442 -1.447522 5.690625 16.327378 3.728679 -11.609506 2.366042 1.474054 -7.669218 -21.715294 1.392214 4.087218 -6.224074 11.402596 -0.453672 -47.090322 1.885120 -6.969183 15.058495 -0.893249 -0.143058 3.796058 -0.633847 4.477038 -12.554591 0.647849 -4.037359 -8.977018 1.610478 -5.663286 -8.542618 -0.444691 -2.947409 -0.205861 -1.378524 -0.610600 -6.118887 4.643408 -1.250680 7.776519 0.309003 -0.454582 1.320186 13.138865 6.522713 -1.275410 -89.152107 -25.454383 31.581519 26.184677 -43.572301 -11.007350 -0.167278 -0.399079 -12.982293 22.307788 -16.145400 -6.432380 -7.125000 0.000000 0.000000 -3.428971 13.032340 2.569665 -12.770608 -6.790398 1.529022 101.405711 -31.591047 -51.925778 -2.336718 10.025237 0.231317 -0.838933 0.645694 42.378380 -16.664151 -35.459352 9.237523 7.125000 0.000000 0.000000 23.062200 -65.193479 -11.538862
-0.008102 17.435249 -20.893777 3.304266 9.422260 21.254955 -5.521358 -1.533439 2.520121 -11.255243 0.550837 -3.609561 -1.461438 5.681842 16.335593 3.678073 -11.583769 2.897391 1.557562 -7.873255 -22.331481 1.320965 4.050046 -6.229947 11.499281 -0.659633 -47.425073 1.790923 -7.300932 15.920602 -0.675716 -1.030587 4.547395 -1.406741 7.029513 -19.987174 0.686397 -4.056632 -9.164667 1.607051 -5.698397 -8.551727 -0.505272 -2.971994 -0.165090 -1.317124 -0.621643 -6.098193 4.530028 -1.255729 7.718434 0.243209 -0.460346 1.276557 13.144138 6.524376 -1.271657 -89.188822 -25.204571 31.464069 26.699238 -43.989846 -11.320641 -0.161147 -0.398312 -13.178671 22.899322 -16.452006 -6.741341 -7.125000 0.000000 0.000000 -3.056512 12.632421 2.314596 -12.763579 -6.794975 1.525652 101.325574 -31.619026 -52.875321 -2.347015 9.938600 0.242264 -0.828784 0.663908 43.166810 -16.759752 -35.563343 9.318969 7.125000 0.000000 0.000000 23.084600 -65.321037 -11.618387
-0.007012 17.419477 -20.761016 3.408791 9.499942 21.341796 -5.480483 -1.494217 2.550521 -11.308887 0.313044 -3.220315 -1.472569 5.677110 16.361725 3.611055 -11.472663 3.510404 1.601717 -7.981671 -22.658593 1.249547 4.011039 -6.234546 11.661391 -0.883274 -47.795581 1.692806 -7.626970 16.773717 -0.492029 -1.826301 5.448165 -2.284793 9.285999 -26.817725 0.772371 -4.068513 -9.322235 1.607287 -5.732301 -8.565635 -0.572644 -2.995919 -0.148482 -1.255460 -0.613141 -6.102780 4.426718 -1.235070 7.676214 0.182390 -0.452523 1.250272 13.148211 6.524102 -1.268774 -89.209989 -24.940584 31.350967 27.222135 -44.405521 -11.641463 -0.154398 -0.396764 -13.402306 23.457620 -16.715532 -7.026834 -7.125000 0.000000 0.000000 -2.705446 12.279402 2.069442 -12.755096 -6.796409 1.520671 101.246396 -31.636954 -53.689619 -2.359942 9.870223 0.249483 -0.818571 0.679179 43.816591 -16.855993 -35.612452 9.389573 7.125000 0.000000 0.000000 23.042892 -65.399533 -11.637973
-0.006704 17.404683 -20.629819 3.443591 9.578331 21.421511 -5.436546 -1.455207 2.586266 -11.324858 0.154497 -2.859876 -1.478878 5.679393 16.418884 3.515619 -11.213722 4.264835 1.577723 -7.924500 -22.485110 1.177838 3.968858 -6.236937 11.936800 -1.137532 -48.228010 1.587904 -7.943120 17.611257 -0.366953 -2.463017 6.607708 -3.344951 11.029919 -32.605735 0.940470 -4.067593 -9.427712 1.613866 -5.764113 -8.587852 -0.651777 -3.018699 -0.173716 -1.193338 -0.570793 -6.151147 4.340846 -1.169891 7.661464 0.130185 -0.421173 1.254021 13.150206 6.520472 -1.267397 -89.204232 -24.652049 31.245396 27.759468 -44.817955 -11.975327 -0.146579 -0.393867 -13.673145 23.958363 -16.904453 -7.271687 -7.125000 0.000000 0.000000 -2.391424 12.007603 1.841459 -12.744094 -6.792400 1.512900 101.168878 -31.637478 -54.269715 -2.377423 9.833467 0.250250 -0.808247 0.689356 44.226271 -16.953342 -35.566524 9.441403 7.125000 0.000000 0.000000 22.890169 -65.393066 -11.553762
-0.006182 17.393251 -20.497512 3.498790 9.641974 21.493768 -5.394344 -1.420815 2.614678 -11.368876 -0.021367 -2.513227 -1.478897 5.703656 16.527299 3.409689 -10.883253 4.922020 1.643283 -8.059445 -22.906559 1.107190 3.929580 -6.236835 12.139241 -1.358484 -48.612814 1.482101 -8.246909 18.427426 -0.298997 -2.869545 7.709747 -3.948813 12.037679 -35.936375 1.085427 -4.070256 -9.531353 1.619694 -5.796551 -8.607103 -0.722526 -3.041217 -0.186959 -1.143389 -0.522358 -6.211672 4.258796 -1.096215 7.646869 0.082159 -0.385645 1.260120 13.152956 6.518125 -1.265447 -89.210734 -24.334275 31.130259 28.311291 -45.238658 -12.321424 -0.138904 -0.390133 -13.937853 24.413962 -17.062322 -7.489682 -7.125000 0.000000 0.000000 -2.105469 11.773662 1.632524 -12.735546 -6.789501 1.504540 101.080390 -31.605583 -54.940992 -2.396002 9.784830 0.252754 -0.796682 0.701366 44.746733 -17.077732 -35.543251 9.515022 7.125000 0.000000 0.000000 22.733421 -65.415340 -11.482290
-0.004949 17.392943 -20.361537 3.621458 9.656842 21.541358 -5.357885 -1.401699 2.618830 -11.505666 -0.254507 -2.212191 -1.458112 5.800621 16.805252 3.269049 -10.316188 5.257547 2.005057 -8.829855 -25.295862 1.040049 3.899906 -6.228483 12.100332 -1.469268 -48.840087 1.373320 -8.509817 19.172908 -0.419981 -2.514682 8.621583 -3.043394 10.610453 -31.138792 1.153833 -4.084768 -9.628924 1.623035 -5.831062 -8.616548 -0.765541 -3.062871 -0.160539 -1.133703 -0.453793 -6.312413 4.189386 -0.994435 7.632784 0.047949 -0.336299 1.273991 13.158205 6.520023 -1.261600 -89.257785 -23.919786 30.983485 28.911041 -45.686708 -12.707984 -0.131701 -0.383632 -14.182281 24.720239 -17.117481 -7.618833 -7.125000 0.000000 0.000000 -1.912351 11.664942 1.486596 -12.735118 -6.790272 1.494226 100.955613 -31.466457 -55.913869 -2.418209 9.696890 0.261010 -0.781013 0.719440 45.633625 -17.291563 -35.594911 9.660715 7.125000 0.000000 0.000000 22.563359 -65.532682 -11.452954
-0.005214 17.393886 -20.225875 3.701419 9.659782 21.587535 -5.321809 -1.382582 2.622001 -11.593419 -0.494664 -1.935213 -1.433396 5.905043 17.106058 3.137683 -9.783489 5.604138 2.361971 -9.578297 -27.625170 0.977979 3.868956 -6.217924 12.066452 -1.504130 -49.046627 1.264936 -8.775355 19.919094 -0.524110 -2.217479 9.474322 -2.236952 9.342473 -26.873121 1.248031 -4.089552 -9.725927 1.631858 -5.858621 -8.626090 -0.799788 -3.079170 -0.134451 -1.118857 -0.388089 -6.418212 4.114165 -0.896093 7.620724 0.009004 -0.288707 1.290205 13.165345 6.523156 -1.257815 -89.311193 -23.502693 30.832408 29.508912 -46.131672 -13.094061 -0.124592 -0.376916 -14.425987 25.018354 -17.173301 -7.745794 -7.125000 0.000000 0.000000 -1.724774 11.556264 1.344842 -12.732847 -6.789946 1.483390 100.827266 -31.324663 -56.852598 -2.441049 9.611897 0.269325 -0.766067 0.736723 46.494136 -17.491506 -35.659166 9.800661 7.125000 0.000000 0.000000 22.422629 -65.656836 -11.442765
